<?xml version="1.0" encoding="UTF-8" standalone="no"?>
<!DOCTYPE svg PUBLIC "-//W3C//DTD SVG 1.1//EN"
 "http://www.w3.org/Graphics/SVG/1.1/DTD/svg11.dtd">
<!-- Generated by graphviz version 14.1.2 (20260124.0452)
 -->
<!-- Title: dependency&#45;cruiser output Pages: 1 -->
<svg width="307pt" height="122pt"
 viewBox="0.00 0.00 307.00 122.00" xmlns="http://www.w3.org/2000/svg" xmlns:xlink="http://www.w3.org/1999/xlink">
<g id="graph0" class="graph" transform="scale(1 1) rotate(0) translate(4 118)">
<title>dependency&#45;cruiser output</title>
<polygon fill="white" stroke="none" points="-4,4 -4,-118 303.25,-118 303.25,4 -4,4"/>
<g id="clust1" class="cluster">
<title>cluster_src</title>
<path fill="#ffffff" stroke="black" stroke-width="2" d="M20,-8C20,-8 279.25,-8 279.25,-8 285.25,-8 291.25,-14 291.25,-20 291.25,-20 291.25,-94 291.25,-94 291.25,-100 285.25,-106 279.25,-106 279.25,-106 20,-106 20,-106 14,-106 8,-100 8,-94 8,-94 8,-20 8,-20 8,-14 14,-8 20,-8"/>
<text xml:space="preserve" text-anchor="middle" x="149.62" y="-93.45" font-family="Helvetica,sans-Serif" font-weight="bold" font-size="9.00">src</text>
</g>
<!-- src/app -->
<g id="node1" class="node">
<title>src/app</title>
<g id="a_node1"><a xlink:href="src/app" xlink:title="app">
<polygon fill="#ffffcc" stroke="black" points="70,-51.25 18.06,-51.25 16,-49.19 16,-32.75 67.94,-32.75 70,-34.81 70,-51.25"/>
<polyline fill="none" stroke="black" points="67.94,-49.19 16,-49.19"/>
<polyline fill="none" stroke="black" points="67.94,-49.19 67.94,-32.75"/>
<polyline fill="none" stroke="black" points="67.94,-49.19 70,-51.25"/>
<text xml:space="preserve" text-anchor="start" x="35.12" y="-38.7" font-family="Helvetica,sans-Serif" font-size="9.00">app</text>
</a>
</g>
</g>
<!-- src/server -->
<g id="node2" class="node">
<title>src/server</title>
<g id="a_node2"><a xlink:href="src/server" xlink:title="server">
<polygon fill="#ccffcc" stroke="black" points="283.25,-41.25 231.31,-41.25 229.25,-39.19 229.25,-22.75 281.19,-22.75 283.25,-24.81 283.25,-41.25"/>
<polyline fill="none" stroke="black" points="281.19,-39.19 229.25,-39.19"/>
<polyline fill="none" stroke="black" points="281.19,-39.19 281.19,-22.75"/>
<polyline fill="none" stroke="black" points="281.19,-39.19 283.25,-41.25"/>
<text xml:space="preserve" text-anchor="start" x="243.5" y="-28.7" font-family="Helvetica,sans-Serif" font-size="9.00">server</text>
</a>
</g>
</g>
<!-- src/app&#45;&gt;src/server -->
<g id="edge1" class="edge">
<title>src/app&#45;&gt;src/server</title>
<path fill="none" stroke="#000000" stroke-width="2" stroke-opacity="0.200000" d="M43.25,-32.29C43.25,-29.05 43.25,-26.25 43.25,-26.25 43.25,-26.25 219.81,-26.25 219.81,-26.25"/>
<polygon fill="#000000" fill-opacity="0.200000" stroke="#000000" stroke-width="2" stroke-opacity="0.200000" points="219.81,-28.35 225.81,-26.25 219.81,-24.15 219.81,-28.35"/>
</g>
<!-- src/lib -->
<g id="node3" class="node">
<title>src/lib</title>
<g id="a_node3"><a xlink:href="src/lib" xlink:title="lib">
<polygon fill="#ffffcc" stroke="black" points="216.25,-48.25 164.31,-48.25 162.25,-46.19 162.25,-29.75 214.19,-29.75 216.25,-31.81 216.25,-48.25"/>
<polyline fill="none" stroke="black" points="214.19,-46.19 162.25,-46.19"/>
<polyline fill="none" stroke="black" points="214.19,-46.19 214.19,-29.75"/>
<polyline fill="none" stroke="black" points="214.19,-46.19 216.25,-48.25"/>
<text xml:space="preserve" text-anchor="start" x="184.38" y="-35.7" font-family="Helvetica,sans-Serif" font-size="9.00">lib</text>
</a>
</g>
</g>
<!-- src/app&#45;&gt;src/lib -->
<g id="edge2" class="edge">
<title>src/app&#45;&gt;src/lib</title>
<path fill="none" stroke="#000000" stroke-width="2" stroke-opacity="0.200000" d="M70.17,-38.25C70.17,-38.25 153.2,-38.25 153.2,-38.25"/>
<polygon fill="#000000" fill-opacity="0.200000" stroke="#000000" stroke-width="2" stroke-opacity="0.200000" points="153.2,-40.35 159.2,-38.25 153.2,-36.15 153.2,-40.35"/>
</g>
<!-- src/components -->
<g id="node4" class="node">
<title>src/components</title>
<g id="a_node4"><a xlink:href="src/components" xlink:title="components">
<polygon fill="#ffffcc" stroke="black" points="149.25,-62.25 85.06,-62.25 83,-60.19 83,-43.75 147.19,-43.75 149.25,-45.81 149.25,-62.25"/>
<polyline fill="none" stroke="black" points="147.19,-60.19 83,-60.19"/>
<polyline fill="none" stroke="black" points="147.19,-60.19 147.19,-43.75"/>
<polyline fill="none" stroke="black" points="147.19,-60.19 149.25,-62.25"/>
<text xml:space="preserve" text-anchor="start" x="91" y="-49.7" font-family="Helvetica,sans-Serif" font-size="9.00">components</text>
</a>
</g>
</g>
<!-- src/app&#45;&gt;src/components -->
<g id="edge3" class="edge">
<title>src/app&#45;&gt;src/components</title>
<path fill="none" stroke="#000000" stroke-width="2" stroke-opacity="0.200000" d="M70.23,-47.5C70.23,-47.5 73.66,-47.5 73.66,-47.5"/>
<polygon fill="#000000" fill-opacity="0.200000" stroke="#000000" stroke-width="2" stroke-opacity="0.200000" points="73.66,-49.6 79.66,-47.5 73.66,-45.4 73.66,-49.6"/>
</g>
<!-- src/features -->
<g id="node5" class="node">
<title>src/features</title>
<g id="a_node5"><a xlink:href="src/features" xlink:title="features">
<polygon fill="#ccffcc" stroke="black" points="216.25,-79.25 164.31,-79.25 162.25,-77.19 162.25,-60.75 214.19,-60.75 216.25,-62.81 216.25,-79.25"/>
<polyline fill="none" stroke="black" points="214.19,-77.19 162.25,-77.19"/>
<polyline fill="none" stroke="black" points="214.19,-77.19 214.19,-60.75"/>
<polyline fill="none" stroke="black" points="214.19,-77.19 216.25,-79.25"/>
<text xml:space="preserve" text-anchor="start" x="172.75" y="-66.7" font-family="Helvetica,sans-Serif" font-size="9.00">features</text>
</a>
</g>
</g>
<!-- src/app&#45;&gt;src/features -->
<g id="edge4" class="edge">
<title>src/app&#45;&gt;src/features</title>
<path fill="none" stroke="#000000" stroke-width="2" stroke-opacity="0.200000" d="M43.25,-51.73C43.25,-60.07 43.25,-70.75 43.25,-70.75 43.25,-70.75 152.76,-70.75 152.76,-70.75"/>
<polygon fill="#000000" fill-opacity="0.200000" stroke="#000000" stroke-width="2" stroke-opacity="0.200000" points="152.76,-72.85 158.76,-70.75 152.76,-68.65 152.76,-72.85"/>
</g>
<!-- src/lib&#45;&gt;src/server -->
<g id="edge8" class="edge">
<title>src/lib&#45;&gt;src/server</title>
<path fill="none" stroke="#000000" stroke-width="2" stroke-opacity="0.200000" d="M216.5,-35.5C216.5,-35.5 221.64,-35.5 221.64,-35.5"/>
<polygon fill="#000000" fill-opacity="0.200000" stroke="#000000" stroke-width="2" stroke-opacity="0.200000" points="227.81,-37.6 221.81,-35.5 227.81,-33.4 227.81,-37.6"/>
</g>
<!-- src/shared -->
<g id="node6" class="node">
<title>src/shared</title>
<g id="a_node6"><a xlink:href="src/shared" xlink:title="shared">
<polygon fill="#ffffcc" stroke="black" points="283.25,-75.25 231.31,-75.25 229.25,-73.19 229.25,-56.75 281.19,-56.75 283.25,-58.81 283.25,-75.25"/>
<polyline fill="none" stroke="black" points="281.19,-73.19 229.25,-73.19"/>
<polyline fill="none" stroke="black" points="281.19,-73.19 281.19,-56.75"/>
<polyline fill="none" stroke="black" points="281.19,-73.19 283.25,-75.25"/>
<text xml:space="preserve" text-anchor="start" x="242" y="-62.7" font-family="Helvetica,sans-Serif" font-size="9.00">shared</text>
</a>
</g>
</g>
<!-- src/lib&#45;&gt;src/shared -->
<g id="edge9" class="edge">
<title>src/lib&#45;&gt;src/shared</title>
<path fill="none" stroke="#000000" stroke-width="2" stroke-opacity="0.200000" d="M216.5,-44.75C235.05,-44.75 256.25,-44.75 256.25,-44.75 256.25,-44.75 256.25,-49.2 256.25,-49.2"/>
<polygon fill="#000000" fill-opacity="0.200000" stroke="#000000" stroke-width="2" stroke-opacity="0.200000" points="254.15,-55.37 256.25,-49.37 258.35,-55.37 254.15,-55.37"/>
</g>
<!-- src/components&#45;&gt;src/lib -->
<g id="edge5" class="edge">
<title>src/components&#45;&gt;src/lib</title>
<path fill="none" stroke="#000000" stroke-width="2" stroke-opacity="0.200000" d="M149.53,-51.08C172.27,-51.08 198.25,-51.08 198.25,-51.08 198.25,-51.08 198.25,-50.8 198.25,-50.8"/>
<polygon fill="#000000" fill-opacity="0.200000" stroke="#000000" stroke-width="2" stroke-opacity="0.200000" points="200.35,-57.31 198.25,-51.31 196.15,-57.31 200.35,-57.31"/>
</g>
<!-- src/components&#45;&gt;src/features -->
<g id="edge6" class="edge">
<title>src/components&#45;&gt;src/features</title>
<path fill="none" stroke="#000000" stroke-width="2" stroke-opacity="0.200000" d="M149.69,-53.92C165.21,-53.92 180.25,-53.92 180.25,-53.92 180.25,-53.92 180.25,-54.57 180.25,-54.57"/>
<polygon fill="#000000" fill-opacity="0.200000" stroke="#000000" stroke-width="2" stroke-opacity="0.200000" points="178.15,-59.46 180.25,-53.46 182.35,-59.46 178.15,-59.46"/>
</g>
<!-- src/features&#45;&gt;src/shared -->
<g id="edge7" class="edge">
<title>src/features&#45;&gt;src/shared</title>
<path fill="none" stroke="#000000" stroke-width="2" stroke-opacity="0.200000" d="M216.5,-68C216.5,-68 219.78,-68 219.78,-68"/>
<polygon fill="#000000" fill-opacity="0.200000" stroke="#000000" stroke-width="2" stroke-opacity="0.200000" points="219.78,-70.1 225.78,-68 219.78,-65.9 219.78,-70.1"/>
</g>
</g>
</svg>
